<svg xmlns="http://www.w3.org/2000/svg" viewBox="0 0 128 128">
  <defs/>
  <g id="Empty_Box" data-name="Empty Box">
    <path class="cls-1" d="M113.24 55c15.68-23 15-21.6 14.73-22.31s2.41.49-45.31-17.41a19 19 0 0 0-37.3 0L.64 32a1 1 0 0 0-.48 1.54L14.76 55 .16 76.42A1 1 0 0 0 .64 78L15 83.33V109c0 1.06-3-.4 48.66 19a1.11 1.11 0 0 0 .72 0c52-19.55 48.62-18 48.62-19V83.33L127.36 78a1 1 0 0 0 .48-1.54zM68 48a1 1 0 0 0 1-1c0-5.2-.1-5.61.3-6.92L109.09 55 64 71.91 18.91 55l40.21-15.08c-.19 1.47-.12 1.9-.12 7.08a1 1 0 0 0 1 1zm-5.94-15.67C52.73 18.65 53.51 20 54 20a1 1 0 0 0 1-1 9 9 0 1 1 13.17 8 17.45 17.45 0 0 0-6.11 5.33zm49.55 21.43-41.4-15.53a7.41 7.41 0 0 1 2.67-2.41A18.94 18.94 0 0 0 83 17.57l42.42 15.93zM52.68 6.35A17 17 0 1 1 71.93 34a9.12 9.12 0 0 0-5 8v4H61v-3.94a15.07 15.07 0 0 1 8.12-13.31c9.6-5.07 6.88-19.52-3.85-20.7A11 11 0 0 0 53 18h-6a17 17 0 0 1 5.68-11.65zm-7.62 11.22C45 18 45 18.52 45 19a1 1 0 0 0 1 1h5.19l9.71 14.25a16.9 16.9 0 0 0-1.31 3.31l-43.2 16.2L2.58 33.5zM16.39 56.24l46 17.26-13.78 20.26L2.58 76.5zM17 84.1C50.79 96.76 48.71 96 49 96c.77 0-.32 1.27 14-19.71v49.22l-46-17.22zm94 24.19-46 17.24V76.31C79.27 97.21 78.23 96 79 96c.29 0-1.87.77 32-11.92zM79.39 93.76 65.58 73.5l46-17.26 13.84 20.26z"/>
    <path class="cls-1" d="M64 63a5 5 0 1 0-5-5 5 5 0 0 0 5 5zm0-8a3 3 0 1 1-3 3 3 3 0 0 1 3-3z"/>
  </g>
</svg>
