<svg xmlns="http://www.w3.org/2000/svg" viewBox="0 0 128 128">
  <defs/>
  <g id="Error_502" data-name="Error 502">
    <path class="cls-1" d="M125 96h-6V23a5 5 0 0 0-5-5H14a5 5 0 0 0-5 5v73H3a3 3 0 0 0-3 3c0 5.07-.32 6.21 1 7.36a14.66 14.66 0 0 0 9.7 3.66h106.64a14.66 14.66 0 0 0 9.7-3.66c1.3-1.14 1-2.3 1-7.36a3 3 0 0 0-3.04-3zM11 23a3 3 0 0 1 3-3h100a3 3 0 0 1 3 3v73H11zm65.49 75-1.18 3H52.69l-1.18-3zm49.2 6.81a12.63 12.63 0 0 1-8.35 3.15c-116 0-108.2.41-111.52-1a12.63 12.63 0 0 1-3.51-2.19C1.92 104.48 2 104.6 2 99a1 1 0 0 1 1-1h46.31c1.82 4.55 1.78 5 2.69 5 25.91 0 24.58.28 25-.64L78.69 98H125a1 1 0 0 1 1 1c0 5.41.08 5.48-.31 5.83z"/>
    <path class="cls-1" d="M112 90V26a1 1 0 0 0-1-1H17a1 1 0 0 0-1 1v64a1 1 0 0 0 1 1h94a1 1 0 0 0 1-1zm-2-1H18V27h92z"/>
    <path class="cls-1" d="M34.72 54.72 40 49.44l5.28 5.28a1 1 0 0 0 1.44-1.44L41.44 48l5.28-5.28a1 1 0 0 0-1.44-1.44L40 46.56l-5.28-5.28a1 1 0 0 0-1.44 1.44L38.56 48l-5.28 5.28a1 1 0 0 0 1.44 1.44zm48 0L88 49.44l5.28 5.28a1 1 0 0 0 1.44-1.44L89.44 48l5.28-5.28a1 1 0 0 0-1.44-1.44L88 46.56l-5.28-5.28a1 1 0 0 0-1.44 1.44L86.56 48l-5.28 5.28a1 1 0 0 0 1.44 1.44zM48 72h32a1 1 0 0 0 0-2H48a1 1 0 0 0 0 2z"/>
  </g>
</svg>
