<svg xmlns="http://www.w3.org/2000/svg" viewBox="0 0 128 128">
  <defs/>
  <g id="Fatal_Error" data-name="Fatal Error">
    <path class="cls-1" d="M127.72 37.18C88-2.52 90.75 0 90.1 0 34 0 37.64-.18 37.18.28-2.52 40 0 37.25 0 37.9c0 56.15-.16 52.46.3 52.92C40 130.52 37.25 128 37.9 128c56.15 0 52.46.16 52.92-.3C130.52 88 128 90.75 128 90.1c0-56.1.18-52.46-.28-52.92zM126 89.67 89.67 126H38.33L2 89.67V38.33L38.33 2h51.34L126 38.33z"/>
    <path class="cls-1" d="M85.54 11c-46 0-43.36-.15-43.8.3C9.23 43.78 11 41.83 11 42.46c0 46-.15 43.36.3 43.8C43.78 118.77 41.83 117 42.46 117c46 0 43.36.15 43.8-.3C118.77 84.22 117 86.17 117 85.54c0-46 .15-43.36-.3-43.8C84.22 9.23 86.17 11 85.54 11zM115 85.12 85.12 115H42.88L13 85.12V42.88L42.88 13h42.24L115 42.88z"/>
    <path class="cls-1" d="M80.67 37.05 64 53.72 47.33 37.05a1 1 0 0 0-1.44 0l-7.82 7.82a1 1 0 0 0 0 1.44L54.73 63 38.07 79.65a1 1 0 0 0 0 1.45l7.82 7.82a1 1 0 0 0 1.44 0L64 72.25l16.67 16.67a1 1 0 0 0 1.44 0l7.82-7.82a1 1 0 0 0 0-1.45L73.27 63l16.66-16.69a1 1 0 0 0 0-1.44l-7.82-7.82a1 1 0 0 0-1.44 0zM71.1 62.26a1 1 0 0 0 0 1.45l16.67 16.66-6.38 6.38-16.67-16.67a1 1 0 0 0-1.44 0L46.61 86.75l-6.38-6.38L56.9 63.71a1 1 0 0 0 0-1.45L40.23 45.59l6.38-6.38 16.67 16.67a1 1 0 0 0 1.44 0l16.67-16.67 6.38 6.38z"/>
  </g>
</svg>
