<svg xmlns="http://www.w3.org/2000/svg" viewBox="0 0 128 128">
  <defs/>
  <g id="Notification">
    <path class="cls-1" d="M36 60h13.07a6 6 0 1 0 11.86 0H74a4 4 0 0 0 .64-8C71.51 46.53 72 42.39 72 35.45a17.35 17.35 0 0 0-12.7-16.9 5 5 0 1 0-8.65 0 17 17 0 0 0-7.42 4.15c-9.7 9.3-1.69 18.44-7.87 29.3a4 4 0 0 0 .64 8zm19 5a4 4 0 0 1-3.85-5h7.7A4 4 0 0 1 55 65zm0-52a3 3 0 0 1 2.06 5.1 14.87 14.87 0 0 0-4.12 0A3 3 0 0 1 55 13zM44.66 24.16C54.17 15.09 70 21.8 70 35.45c0 6.81-.46 11 2.3 16.53H37.72c5.43-10.98-1.64-19.63 6.94-27.82zM36 54h38a2 2 0 1 1 0 4H36a2 2 0 0 1 0-4z"/>
    <path class="cls-1" d="M128 86a23.05 23.05 0 0 0-18-22.46c0-20 .08-18.71-.2-19.11s1.43 1.28-15.8-14.87V1a1 1 0 0 0-1-1H17a1 1 0 0 0-1 1v28.56C-5.5 49.7 1.71 42.79.27 44.3c-.46.47-.29-1-.29 82.7a1 1 0 0 0 1 1H109a1 1 0 0 0 1-1v-18.54A23.05 23.05 0 0 0 128 86zm-20.5-41L94 57.48V32.36zM92 2v57.37L65.21 84.16a15 15 0 0 1-20.42 0L18 59.37V2zM2 47.34C4.83 49.93 42.62 85 43.85 86L2 125.07zm43.47 40a16.89 16.89 0 0 0 19 0L106 126H4zM16 57.48 2.5 45 16 32.36zm92 67.59L66.15 86c2.6-2.24-8.15 7.61 41.85-38.66v15.84a23 23 0 1 0 0 45.64zM105 107a21 21 0 1 1 21-21 21 21 0 0 1-21 21z"/>
    <path class="cls-1" d="M116.28 77.28 101 92.56l-7.28-7.28a1 1 0 0 0-1.44 1.44c8.63 8.63 8.12 8.3 8.72 8.3s-.8 1.22 16.72-16.3a1 1 0 0 0-1.44-1.44z"/>
  </g>
</svg>
